<?xml version="1.0" encoding="UTF-8" standalone="no"?>
<!-- Created with Inkscape (http://www.inkscape.org/) -->

<svg
   width="145.63174mm"
   height="145.62527mm"
   viewBox="0 0 145.63174 145.62527"
   version="1.1"
   id="svg5"
   xml:space="preserve"
   inkscape:version="1.2.2 (b0a8486541, 2022-12-01)"
   sodipodi:docname="2025-04-Union-Logo.svg"
   inkscape:export-filename="2025-04-24-Union-Logo.png"
   inkscape:export-xdpi="34.880001"
   inkscape:export-ydpi="34.880001"
   xmlns:inkscape="http://www.inkscape.org/namespaces/inkscape"
   xmlns:sodipodi="http://sodipodi.sourceforge.net/DTD/sodipodi-0.dtd"
   xmlns="http://www.w3.org/2000/svg"
   xmlns:svg="http://www.w3.org/2000/svg"><sodipodi:namedview
     id="namedview7"
     pagecolor="#ffffff"
     bordercolor="#000000"
     borderopacity="0.25"
     inkscape:showpageshadow="2"
     inkscape:pageopacity="0.0"
     inkscape:pagecheckerboard="0"
     inkscape:deskcolor="#d1d1d1"
     inkscape:document-units="mm"
     showgrid="false"
     inkscape:zoom="0.77593294"
     inkscape:cx="337.65805"
     inkscape:cy="255.82108"
     inkscape:window-width="1920"
     inkscape:window-height="1008"
     inkscape:window-x="0"
     inkscape:window-y="0"
     inkscape:window-maximized="1"
     inkscape:current-layer="layer1" /><defs
     id="defs2" /><g
     inkscape:label="Ebene 1"
     inkscape:groupmode="layer"
     id="layer1"
     transform="translate(145.72165,-81.544844)"><g
       id="g171"
       transform="translate(-178.1033,5.5144051)"><path
         style="fill:#a1a0a0;stroke-width:0.0846667"
         d="m 38.591329,221.52691 c -0.849972,-0.13301 -1.177303,-0.23715 -1.934398,-0.61543 -2.236294,-1.11738 -3.748431,-3.07833 -4.15494,-5.38815 -0.103528,-0.58826 -0.120474,-9.97794 -0.120341,-66.68234 1.4e-4,-59.648731 0.01297,-66.070978 0.133348,-66.759674 0.513906,-2.940052 3.116968,-5.482055 6.074924,-5.932426 0.659365,-0.100393 10.68881,-0.118204 66.562348,-0.118204 70.60696,0 66.56298,-0.02408 67.77975,0.403628 2.02503,0.711824 3.74575,2.388014 4.57002,4.451764 0.53734,1.345344 0.50037,-3.642426 0.50326,67.888092 0.002,45.35634 -0.0247,65.51915 -0.0871,66.12467 -0.18544,1.8009 -0.86377,3.22834 -2.14846,4.52108 -1.15123,1.15846 -2.58888,1.89832 -4.11185,2.1161 -1.15707,0.16546 -132.00826,0.15649 -133.066611,-0.009 z m 66.181131,-21.99175 c 0.0924,-0.15134 0.3459,-0.73237 0.56329,-1.29117 0.21738,-0.5588 0.67762,-1.7399 1.02275,-2.62466 3.1469,-8.06728 8.11316,-13.4006 15.36101,-16.49634 2.02998,-0.86705 4.16881,-1.55597 9.2561,-2.98138 4.873,-1.36536 6.7558,-2.02291 8.85126,-3.09124 2.91304,-1.48515 5.11549,-3.46376 6.88306,-6.18347 0.55438,-0.85302 1.52203,-2.66734 1.48125,-2.7773 -0.0155,-0.0419 -0.42829,0.16898 -0.91724,0.46854 -2.19668,1.34582 -4.51308,2.2408 -6.90033,2.66607 -0.91919,0.16374 -1.37987,0.19515 -2.794,0.19052 -1.60992,-0.005 -2.159,-0.0744 -2.159,-0.27169 0,-0.0412 0.42077,-0.2144 0.93505,-0.38501 2.54062,-0.84283 5.45416,-2.50683 8.18327,-4.67373 1.17213,-0.93065 3.99234,-3.78521 4.88489,-4.94438 3.72298,-4.83508 5.53745,-9.98161 5.58256,-15.83427 0.0131,-1.70364 -0.0831,-3.47133 -0.18897,-3.47133 -0.0331,0 -0.16755,0.39053 -0.29871,0.86783 -1.06323,3.86926 -3.30286,7.55933 -6.12088,10.08497 -1.46266,1.31088 -3.3144,2.56136 -4.61174,3.11428 -0.95065,0.40516 -1.05887,0.30843 -0.42207,-0.37731 2.68615,-2.8926 5.60191,-7.36126 7.1094,-10.89577 2.00063,-4.69075 2.45803,-9.42005 1.40685,-14.54641 -0.24369,-1.18839 -0.84685,-3.14892 -0.96878,-3.14892 -0.0448,0 -0.0815,0.15045 -0.0815,0.33433 0,0.54112 -0.23826,2.25177 -0.47053,3.37835 -0.99705,4.83582 -3.27759,9.24334 -6.70506,12.95868 -1.08241,1.17333 -2.47641,2.29634 -2.47641,1.99502 0,-0.0247 0.26303,-0.4343 0.58453,-0.91017 1.00798,-1.49201 1.81553,-3.05643 2.63184,-5.09855 2.2022,-5.50914 2.69031,-11.28808 1.40166,-16.59466 -0.64893,-2.67223 -1.56568,-4.87904 -3.09004,-7.43841 -0.69311,-1.1637 -2.09538,-3.18726 -2.20869,-3.18726 -0.0362,0 0.008,0.23812 0.0973,0.52917 1.3107,4.25365 1.68944,9.04149 1.08668,13.73716 -0.45986,3.58246 -1.64662,7.64656 -3.16463,10.83734 -0.60493,1.27155 -1.20482,2.32833 -1.3217,2.32833 -0.12652,0 -0.0993,-0.22503 0.16968,-1.40148 1.05646,-4.62105 1.58088,-10.08056 1.36584,-14.21889 -0.25682,-4.94201 -1.15694,-8.6122 -2.86784,-11.69345 -2.29463,-4.13252 -5.08103,-7.3064 -8.02566,-9.141696 -0.34954,-0.217866 -0.65011,-0.381552 -0.66791,-0.363747 -0.0178,0.0178 0.2521,0.451298 0.59979,0.963317 2.65369,3.907876 4.2072,8.658996 4.91468,15.030596 0.126,1.13478 0.15455,2.06421 0.15337,4.99268 -0.002,3.84782 -0.0692,4.88679 -0.5146,7.89814 -1.66152,11.2349 -6.95705,21.82017 -16.08339,32.1492 -6.1358,6.94439 -8.78716,11.92359 -10.18897,19.13467 -0.25865,1.33058 -0.62883,3.89856 -0.73622,5.10735 -0.0637,0.71744 -0.19559,0.95959 -0.44874,0.82412 -0.12218,-0.0654 -0.16679,-0.2874 -0.25093,-1.24867 -0.30004,-3.42821 -1.12592,-6.25471 -2.5596,-8.76003 -1.58793,-2.77485 -4.149018,-5.02782 -6.850434,-6.02625 -3.017798,-1.11536 -5.916936,-0.49659 -6.956854,1.48483 -0.145114,0.27649 -0.19165,0.50938 -0.194168,0.97169 -0.003,0.55978 0.01647,0.62872 0.245897,0.86839 0.362695,0.37891 0.214993,0.49171 -0.486484,0.37156 -1.475256,-0.2527 -2.611137,-1.2991 -3.056649,-2.81586 -0.171866,-0.58512 -0.17576,-1.84764 -0.0086,-2.79734 0.486193,-2.7627 2.071707,-6.07149 4.044181,-8.43972 0.59323,-0.71225 1.533899,-1.60248 2.05198,-1.94194 0.116632,-0.0764 0.212059,-0.18533 0.212059,-0.24203 0,-0.0567 -0.29381,-0.48094 -0.652911,-0.94276 -3.019313,-3.88299 -5.916395,-8.56858 -7.79715,-12.61069 -2.849012,-6.12308 -4.400321,-11.90707 -5.029247,-18.75132 -0.163643,-1.78084 -0.136469,-7.07211 0.04566,-8.89 0.637729,-6.36553 2.212153,-11.30306 4.855441,-15.22709 0.387315,-0.574977 0.70421,-1.06313 0.70421,-1.084783 0,-0.08107 -0.829678,0.418737 -1.538342,0.926719 -2.83866,2.034794 -5.688932,5.557764 -7.640721,9.444004 -2.587564,5.15215 -3.501618,12.05221 -2.588567,19.5407 0.182902,1.50009 0.508198,3.35581 0.764962,4.36389 0.294278,1.15535 0.184918,1.30486 -0.345788,0.47272 -0.5053,-0.79229 -1.192967,-2.1769 -1.671479,-3.3655 -2.6567,-6.59908 -2.886332,-14.10442 -0.64065,-20.93917 0.165442,-0.50352 0.280661,-0.93564 0.256042,-0.96026 -0.02462,-0.0246 -0.250573,0.23496 -0.502117,0.57683 -2.998089,4.07477 -4.768645,8.46596 -5.320146,13.1946 -0.136246,1.16819 -0.136981,4.19068 -0.0013,5.41867 0.518637,4.69461 2.354362,9.7969 4.76442,13.24245 0.224969,0.32162 0.409035,0.6169 0.409035,0.65616 0,0.45543 -2.038611,-1.3917 -3.504202,-3.17506 -3.469135,-4.22131 -5.537785,-9.16933 -6.069169,-14.51688 -0.05693,-0.57291 -0.13212,-1.01106 -0.16709,-0.97366 -0.116325,0.1244 -0.655124,1.91698 -0.872955,2.90432 -0.399271,1.80974 -0.493564,2.66279 -0.538129,4.86834 -0.09084,4.49567 0.564431,7.32502 2.686371,11.59933 1.563536,3.1495 3.572354,6.1396 5.923375,8.81687 0.42009,0.47838 0.763799,0.90962 0.763799,0.95829 0,0.17581 -0.317411,0.0803 -1.229895,-0.37007 -3.090466,-1.52536 -6.033075,-4.31455 -8.001979,-7.58475 -0.943072,-1.56638 -1.63796,-3.19238 -2.263551,-5.29658 -0.272971,-0.91815 -0.32303,-1.02553 -0.383186,-0.82194 -0.127858,0.43272 -0.174289,4.24678 -0.06581,5.40635 0.485725,5.19226 2.375138,9.82113 5.733779,14.04717 0.986376,1.24111 3.375076,3.61735 4.686649,4.66219 2.749567,2.1904 5.759845,3.8951 8.360834,4.73469 1.291822,0.417 0.814413,0.59422 -1.5875,0.58931 -1.686682,-0.003 -2.739889,-0.14561 -4.349973,-0.58717 -1.780028,-0.48815 -3.698089,-1.3405 -5.349089,-2.37703 -0.406627,-0.25529 -0.755239,-0.44824 -0.774693,-0.4288 -0.05598,0.056 0.788784,1.69498 1.297491,2.51737 1.396758,2.25802 3.202598,4.11417 5.366264,5.51575 2.346914,1.52027 4.921037,2.51426 10.583334,4.08671 7.640066,2.12167 10.169111,3.10654 13.250335,5.15999 3.279335,2.18548 5.795715,5.01333 7.73528,8.6927 0.81382,1.54382 1.49215,3.23388 2.44053,6.08052 0.90558,2.71818 1.09844,3.20379 1.40551,3.53894 0.23776,0.2595 0.37151,0.23962 0.56954,-0.0847 z m -13.998798,-36.6395 c 0.571073,-0.90805 1.039504,-1.6962 1.040961,-1.75144 0.0042,-0.15923 -1.14766,0.19471 -1.553142,0.47724 -0.739902,0.51553 -1.526819,1.51034 -1.919651,2.42677 -0.09117,0.2127 -0.143459,0.42282 -0.116193,0.46694 0.02727,0.0441 0.378105,0.0692 0.779643,0.0558 l 0.730069,-0.0244 z"
         id="path185" /><path
         style="fill:#ea4950;stroke-width:0.0846667"
         d="m 38.732625,221.52465 c -2.958136,-0.53614 -5.155889,-2.50157 -6.075422,-5.43321 l -0.233606,-0.74478 -0.02538,-66.12467 c -0.0188,-48.99183 -4.96e-4,-66.285326 0.07066,-66.744714 0.462491,-2.986089 2.656096,-5.387178 5.675382,-6.212192 l 0.714009,-0.195102 h 66.294002 66.29401 l 0.71966,0.191 c 0.77837,0.206577 1.8961,0.70744 2.48887,1.115278 1.81709,1.250191 3.01017,3.273647 3.26203,5.532392 0.12874,1.154516 0.12874,130.710158 0,131.864668 -0.36035,3.23165 -2.5171,5.73639 -5.72687,6.65091 l -0.65903,0.18777 -66.08234,0.0137 c -55.30647,0.0115 -66.185658,-0.005 -66.715972,-0.10109 z m 66.013985,-21.82016 c 0.24638,-0.26945 0.35975,-0.51855 0.95374,-2.0955 1.61399,-4.28488 2.56729,-6.24129 4.26933,-8.76167 1.6571,-2.45382 3.61686,-4.52124 5.95326,-6.28029 1.27268,-0.95819 2.44093,-1.68389 3.919,-2.43442 2.76284,-1.40291 4.74736,-2.09465 11.176,-3.8956 4.68378,-1.31214 6.42074,-1.90928 8.509,-2.92524 1.85651,-0.90322 3.28097,-1.89318 4.68716,-3.25744 1.04492,-1.01377 1.68982,-1.79614 2.516,-3.05234 0.62342,-0.9479 1.64451,-2.84693 1.64451,-3.05849 0,-0.19006 -0.12737,-0.14002 -0.86492,0.33978 -2.60559,1.69502 -5.6382,2.75569 -8.61775,3.01409 -1.01047,0.0876 -2.59491,0.0434 -3.04795,-0.085 l -0.21172,-0.06 0.21167,-0.0875 c 0.11642,-0.0481 0.57245,-0.21531 1.0134,-0.37151 2.26386,-0.80187 5.22302,-2.53433 7.70727,-4.51226 1.30143,-1.03618 3.68998,-3.40985 4.69093,-4.66172 4.3223,-5.4058 6.31998,-11.80137 5.8062,-18.58857 -0.13314,-1.75881 -0.22044,-1.92822 -0.46685,-0.90593 -0.22946,0.95198 -0.83441,2.72396 -1.26213,3.69693 -1.8616,4.23477 -5.1927,7.85825 -9.01282,9.80388 -0.81557,0.41538 -1.11,0.52128 -1.11,0.39926 0,-0.0268 0.36656,-0.4745 0.81457,-0.99484 4.07088,-4.72806 7.12281,-10.39376 8.03295,-14.9126 0.34571,-1.71646 0.41875,-2.53193 0.42117,-4.70246 0.003,-2.26099 -0.0793,-3.15434 -0.46627,-5.09424 -0.2835,-1.42106 -0.98186,-3.65095 -1.12813,-3.60219 -0.0577,0.0192 -0.13816,0.48476 -0.20182,1.16804 -0.50627,5.43428 -2.77912,10.7611 -6.37317,14.93672 -1.04068,1.20907 -2.79263,2.84325 -2.79263,2.6049 0,-0.0405 0.24347,-0.44291 0.54105,-0.89427 1.08765,-1.64968 2.47162,-4.63975 3.18176,-6.8742 0.62607,-1.96994 1.09606,-4.29437 1.28145,-6.3377 0.13836,-1.52484 0.0529,-4.51955 -0.1708,-5.98273 -0.47414,-3.10178 -1.57372,-6.27898 -3.09811,-8.9519 -1.33426,-2.33954 -3.21504,-4.9291 -2.98331,-4.1076 0.023,0.0815 0.17592,0.60537 0.33984,1.16417 0.6013,2.04974 0.9865,4.14063 1.16985,6.35 0.12412,1.4957 0.054,4.8499 -0.13372,6.39233 -0.50642,4.16214 -1.75029,8.40575 -3.4867,11.89534 -0.56232,1.13008 -0.81183,1.54345 -0.85444,1.41559 -0.0177,-0.053 0.0828,-0.60268 0.22335,-1.22149 1.26604,-5.57524 1.68241,-12.25719 1.06316,-17.06188 -0.40907,-3.17397 -1.13537,-5.68659 -2.31938,-8.02389 -1.88234,-3.71583 -4.45325,-6.94137 -7.15767,-8.9802 -0.64801,-0.488522 -2.0574,-1.391472 -2.17192,-1.391472 -0.14241,0 -0.0663,0.189839 0.21485,0.536084 0.15763,0.194104 0.53397,0.733916 0.83631,1.199578 3.11863,4.8033 4.80376,11.64927 4.80376,19.51567 0,8.57686 -2.01274,16.83476 -6.01546,24.68034 -2.70834,5.30852 -5.9053,9.90226 -10.78008,15.48997 -1.58281,1.8143 -2.44548,2.86337 -3.41483,4.1527 -4.28175,5.69513 -6.36048,11.08688 -7.22654,18.74401 -0.22508,1.99 -0.22189,1.97455 -0.40028,1.94072 -0.1072,-0.0203 -0.15096,-0.12695 -0.16738,-0.40779 -0.24843,-4.24798 -1.47614,-8.03153 -3.5523,-10.94742 -0.6347,-0.89142 -2.249381,-2.50801 -3.12497,-3.12866 -1.31624,-0.933 -2.826717,-1.63082 -4.180164,-1.93116 -0.89754,-0.19917 -2.303809,-0.21492 -3.009045,-0.0337 -0.817882,0.21017 -1.690177,0.66681 -2.14764,1.12428 -0.571831,0.57183 -0.788416,1.02669 -0.834079,1.75171 -0.03339,0.53009 -0.01453,0.62594 0.178532,0.90775 0.118722,0.17331 0.183648,0.335 0.144279,0.35934 -0.03937,0.0243 -0.272823,0.006 -0.518786,-0.0406 -1.417571,-0.26883 -2.525125,-1.35228 -2.915852,-2.85238 -0.571452,-2.19395 0.885084,-6.70702 3.218815,-9.97347 0.711434,-0.99577 1.699386,-2.06172 2.494361,-2.69129 0.350761,-0.27778 0.650061,-0.53719 0.665109,-0.57646 0.01505,-0.0393 -0.291252,-0.48215 -0.68067,-0.98416 -9.903535,-12.76702 -14.21699,-26.66942 -12.718684,-40.99272 0.622327,-5.94923 2.403357,-11.16138 5.107565,-14.947186 0.330196,-0.462264 0.58539,-0.855447 0.567097,-0.873739 -0.05734,-0.05734 -0.739816,0.321981 -1.507099,0.837638 -2.896241,1.946437 -5.649988,5.215277 -7.83531,9.300917 -1.485448,2.77717 -2.460702,6.09955 -2.957518,10.07533 -0.125321,1.00288 -0.152686,1.83227 -0.149457,4.52967 0.0035,2.89155 0.02769,3.49663 0.194933,4.86773 0.220256,1.80576 0.537815,3.71515 0.785344,4.72205 0.09461,0.38488 0.156023,0.74683 0.136461,0.80433 -0.05583,0.16412 -0.630727,-0.79522 -1.255166,-2.0945 -1.26778,-2.63787 -2.148709,-5.70376 -2.591532,-9.01928 -0.218609,-1.63677 -0.21741,-5.82954 0.0021,-7.45066 0.299847,-2.21414 0.756581,-4.20126 1.42549,-6.2019 0.185732,-0.55551 0.32042,-1.02729 0.299307,-1.04841 -0.151225,-0.15122 -2.176317,2.78045 -3.098733,4.48595 -3.269625,6.04539 -4.045378,12.48966 -2.325316,19.31669 0.777143,3.08453 2.322185,6.62246 3.89698,8.92354 0.20384,0.29785 0.351902,0.56026 0.329028,0.58314 -0.06901,0.069 -1.171623,-0.87345 -1.838037,-1.57108 -4.284227,-4.48489 -6.890677,-10.30232 -7.398104,-16.5121 -0.03815,-0.46684 -0.08983,-0.69213 -0.154071,-0.67159 -0.250489,0.0801 -1.110871,3.16559 -1.362939,4.88776 -0.572901,3.91415 -0.243658,7.77312 0.961354,11.26779 1.334604,3.87049 4.029896,8.39908 7.144173,12.00352 0.336277,0.3892 0.706662,0.8242 0.823078,0.96667 l 0.211667,0.25904 -0.254,-0.0632 c -0.392804,-0.0978 -1.692023,-0.7772 -2.485894,-1.3 -4.080505,-2.68723 -7.136934,-6.92205 -8.508453,-11.78885 -0.163977,-0.58187 -0.31003,-1.13098 -0.324563,-1.22026 -0.05101,-0.31333 -0.21726,-0.22938 -0.272263,0.13748 -0.129155,0.86146 -0.199909,3.38755 -0.130721,4.66709 0.135812,2.51165 0.500088,4.45565 1.263985,6.74542 1.230274,3.68771 3.100261,6.81451 5.919638,9.89821 2.982068,3.26165 7.575882,6.41024 11.184667,7.66596 0.488916,0.17013 0.922109,0.34241 0.962652,0.38286 0.126777,0.12646 -0.695127,0.20592 -2.063381,0.19947 -3.195249,-0.015 -6.542668,-1.0549 -9.617948,-2.98776 -0.447528,-0.28128 -0.850388,-0.51141 -0.895242,-0.51141 -0.128716,0 -0.006,0.30881 0.538081,1.35387 1.008196,1.93658 2.257544,3.63861 3.628576,4.94332 2.664182,2.53532 5.782297,4.05323 11.7652,5.72734 5.934178,1.66048 7.719166,2.21188 9.779001,3.02086 5.919133,2.32465 10.187891,6.26267 12.922144,11.92095 0.74522,1.54215 1.33691,3.07591 2.17206,5.63033 0.76136,2.32874 1.0132,2.94943 1.32198,3.25821 0.26281,0.26281 0.39544,0.26766 0.61949,0.0226 z M 89.805346,164.55682 c 0.176126,-0.17613 2.181257,-3.40724 2.181257,-3.51492 0,-0.0515 -0.04212,-0.0936 -0.09361,-0.0936 -0.206777,0 -1.142441,0.27647 -1.425309,0.42114 -0.722665,0.36961 -1.562056,1.33706 -2.111762,2.43395 -0.424633,0.84731 -0.410552,0.87025 0.534302,0.87025 0.565845,0 0.832307,-0.034 0.915125,-0.11684 z"
         id="path183" /><path
         style="fill:#5e5e5d;stroke-width:0.0846667"
         d="m 38.931726,221.50312 c 0.02262,-0.0366 -0.207123,-0.11362 -0.510533,-0.17118 -1.302652,-0.2471 -2.729449,-1.02066 -3.732284,-2.0235 -0.948815,-0.94881 -1.731631,-2.35575 -1.97785,-3.55476 -0.05922,-0.28837 -0.133191,-0.50854 -0.164383,-0.48926 -0.03119,0.0193 -0.0809,-0.22103 -0.11046,-0.53402 -0.07026,-0.74395 -0.07026,-131.034874 0,-131.778821 0.02956,-0.312988 0.08644,-0.548865 0.126398,-0.52417 0.03996,0.0247 0.07265,-0.04774 0.07265,-0.160955 0,-0.342829 0.412603,-1.500737 0.774959,-2.174805 1.024427,-1.905676 2.98322,-3.373634 5.002833,-3.74922 0.268148,-0.04987 0.487542,-0.122043 0.487542,-0.160391 0,-0.03835 29.834551,-0.06972 66.299002,-0.06972 36.46445,0 66.2805,0.02994 66.25788,0.06654 -0.0226,0.03659 0.21327,0.114557 0.52417,0.173249 1.2465,0.235309 2.53428,0.942858 3.57013,1.961548 1.1442,1.125243 1.81176,2.315093 2.10295,3.74832 0.0779,0.383174 0.17012,0.709381 0.20505,0.724903 0.0856,0.03805 0.0817,132.094132 -0.004,132.094132 -0.0371,0 -0.11344,0.26835 -0.16969,0.59632 -0.28167,1.64257 -1.34965,3.38027 -2.73215,4.44545 -0.91175,0.70248 -2.22145,1.29755 -3.1683,1.43954 -0.20997,0.0315 -0.38175,0.091 -0.38175,0.1323 0,0.0436 -27.79976,0.0751 -66.25667,0.0751 -36.441172,0 -66.238169,-0.0299 -66.215552,-0.0665 z m 65.814884,-21.79863 c 0.24638,-0.26945 0.35975,-0.51855 0.95374,-2.0955 1.61399,-4.28488 2.56729,-6.24129 4.26933,-8.76167 1.6571,-2.45382 3.61686,-4.52124 5.95326,-6.28029 1.27268,-0.95819 2.44093,-1.68389 3.919,-2.43442 2.76284,-1.40291 4.74736,-2.09465 11.176,-3.8956 4.68378,-1.31214 6.42074,-1.90928 8.509,-2.92524 1.85651,-0.90322 3.28097,-1.89318 4.68716,-3.25744 1.04492,-1.01377 1.68982,-1.79614 2.516,-3.05234 0.62342,-0.9479 1.64451,-2.84693 1.64451,-3.05849 0,-0.19006 -0.12737,-0.14002 -0.86492,0.33978 -2.60559,1.69502 -5.6382,2.75569 -8.61775,3.01409 -1.01047,0.0876 -2.59491,0.0434 -3.04795,-0.085 l -0.21172,-0.06 0.21167,-0.0875 c 0.11642,-0.0481 0.57245,-0.21531 1.0134,-0.37151 2.26386,-0.80187 5.22302,-2.53433 7.70727,-4.51226 1.30143,-1.03618 3.68998,-3.40985 4.69093,-4.66172 4.3223,-5.4058 6.31998,-11.80137 5.8062,-18.58857 -0.13314,-1.75881 -0.22044,-1.92822 -0.46685,-0.90593 -0.22946,0.95198 -0.83441,2.72396 -1.26213,3.69693 -1.8616,4.23477 -5.1927,7.85825 -9.01282,9.80388 -0.81557,0.41538 -1.11,0.52128 -1.11,0.39926 0,-0.0268 0.36656,-0.4745 0.81457,-0.99484 4.07088,-4.72806 7.12281,-10.39376 8.03295,-14.9126 0.34571,-1.71646 0.41875,-2.53193 0.42117,-4.70246 0.003,-2.26099 -0.0793,-3.15434 -0.46627,-5.09424 -0.2835,-1.42106 -0.98186,-3.65095 -1.12813,-3.60219 -0.0577,0.0192 -0.13816,0.48476 -0.20182,1.16804 -0.50627,5.43428 -2.77912,10.7611 -6.37317,14.93672 -1.04068,1.20907 -2.79263,2.84325 -2.79263,2.6049 0,-0.0405 0.24347,-0.44291 0.54105,-0.89427 1.08765,-1.64968 2.47162,-4.63975 3.18176,-6.8742 0.62607,-1.96994 1.09606,-4.29437 1.28145,-6.3377 0.13836,-1.52484 0.0529,-4.51955 -0.1708,-5.98273 -0.47414,-3.10178 -1.57372,-6.27898 -3.09811,-8.9519 -1.33426,-2.33954 -3.21504,-4.9291 -2.98331,-4.1076 0.023,0.0815 0.17592,0.60537 0.33984,1.16417 0.6013,2.04974 0.9865,4.14063 1.16985,6.35 0.12412,1.4957 0.054,4.8499 -0.13372,6.39233 -0.50642,4.16214 -1.75029,8.40575 -3.4867,11.89534 -0.56232,1.13008 -0.81183,1.54345 -0.85444,1.41559 -0.0177,-0.053 0.0828,-0.60268 0.22335,-1.22149 1.26604,-5.57524 1.68241,-12.25719 1.06316,-17.06188 -0.40907,-3.17397 -1.13537,-5.68659 -2.31938,-8.02389 -1.88234,-3.71583 -4.45325,-6.94137 -7.15767,-8.9802 -0.64801,-0.488522 -2.0574,-1.391472 -2.17192,-1.391472 -0.14241,0 -0.0663,0.189839 0.21485,0.536084 0.15763,0.194104 0.53397,0.733916 0.83631,1.199578 3.11863,4.8033 4.80376,11.64927 4.80376,19.51567 0,8.57686 -2.01274,16.83476 -6.01546,24.68034 -2.70834,5.30852 -5.9053,9.90226 -10.78008,15.48997 -1.58281,1.8143 -2.44548,2.86337 -3.41483,4.1527 -4.28175,5.69513 -6.36048,11.08688 -7.22654,18.74401 -0.22508,1.99 -0.22189,1.97455 -0.40028,1.94072 -0.1072,-0.0203 -0.15096,-0.12695 -0.16738,-0.40779 -0.24843,-4.24798 -1.47614,-8.03153 -3.5523,-10.94742 -0.6347,-0.89142 -2.249381,-2.50801 -3.12497,-3.12866 -1.31624,-0.933 -2.826717,-1.63082 -4.180164,-1.93116 -0.89754,-0.19917 -2.303809,-0.21492 -3.009045,-0.0337 -0.817882,0.21017 -1.690177,0.66681 -2.14764,1.12428 -0.571831,0.57183 -0.788416,1.02669 -0.834079,1.75171 -0.03339,0.53009 -0.01453,0.62594 0.178532,0.90775 0.118722,0.17331 0.183648,0.335 0.144279,0.35934 -0.03937,0.0243 -0.272823,0.006 -0.518786,-0.0406 -1.417571,-0.26883 -2.525125,-1.35228 -2.915852,-2.85238 -0.571452,-2.19395 0.885084,-6.70702 3.218815,-9.97347 0.711434,-0.99577 1.699386,-2.06172 2.494361,-2.69129 0.350761,-0.27778 0.650061,-0.53719 0.665109,-0.57646 0.01505,-0.0393 -0.291252,-0.48215 -0.68067,-0.98416 -9.903535,-12.76702 -14.21699,-26.66942 -12.718684,-40.99272 0.622327,-5.94923 2.403357,-11.16138 5.107565,-14.947186 0.330196,-0.462264 0.58539,-0.855447 0.567097,-0.873739 -0.05734,-0.05734 -0.739816,0.321981 -1.507099,0.837638 -2.896241,1.946437 -5.649988,5.215277 -7.83531,9.300917 -1.485448,2.77717 -2.460702,6.09955 -2.957518,10.07533 -0.125321,1.00288 -0.152686,1.83227 -0.149457,4.52967 0.0035,2.89155 0.02769,3.49663 0.194933,4.86773 0.220256,1.80576 0.537815,3.71515 0.785344,4.72205 0.09461,0.38488 0.156023,0.74683 0.136461,0.80433 -0.05583,0.16412 -0.630727,-0.79522 -1.255166,-2.0945 -1.26778,-2.63787 -2.148709,-5.70376 -2.591532,-9.01928 -0.218609,-1.63677 -0.21741,-5.82954 0.0021,-7.45066 0.299847,-2.21414 0.756581,-4.20126 1.42549,-6.2019 0.185732,-0.55551 0.32042,-1.02729 0.299307,-1.04841 -0.151225,-0.15122 -2.176317,2.78045 -3.098733,4.48595 -3.269625,6.04539 -4.045378,12.48966 -2.325316,19.31669 0.777143,3.08453 2.322185,6.62246 3.89698,8.92354 0.20384,0.29785 0.351902,0.56026 0.329028,0.58314 -0.06901,0.069 -1.171623,-0.87345 -1.838037,-1.57108 -4.284227,-4.48489 -6.890677,-10.30232 -7.398104,-16.5121 -0.03815,-0.46684 -0.08983,-0.69213 -0.154071,-0.67159 -0.250489,0.0801 -1.110871,3.16559 -1.362939,4.88776 -0.572901,3.91415 -0.243658,7.77312 0.961354,11.26779 1.334604,3.87049 4.029896,8.39908 7.144173,12.00352 0.336277,0.3892 0.706662,0.8242 0.823078,0.96667 l 0.211667,0.25904 -0.254,-0.0632 c -0.392804,-0.0978 -1.692023,-0.7772 -2.485894,-1.3 -4.080505,-2.68723 -7.136934,-6.92205 -8.508453,-11.78885 -0.163977,-0.58187 -0.31003,-1.13098 -0.324563,-1.22026 -0.05101,-0.31333 -0.21726,-0.22938 -0.272263,0.13748 -0.129155,0.86146 -0.199909,3.38755 -0.130721,4.66709 0.135812,2.51165 0.500088,4.45565 1.263985,6.74542 1.230274,3.68771 3.100261,6.81451 5.919638,9.89821 2.982068,3.26165 7.575882,6.41024 11.184667,7.66596 0.488916,0.17013 0.922109,0.34241 0.962652,0.38286 0.126777,0.12646 -0.695127,0.20592 -2.063381,0.19947 -3.195249,-0.015 -6.542668,-1.0549 -9.617948,-2.98776 -0.447528,-0.28128 -0.850388,-0.51141 -0.895242,-0.51141 -0.128716,0 -0.006,0.30881 0.538081,1.35387 1.008196,1.93658 2.257544,3.63861 3.628576,4.94332 2.664182,2.53532 5.782297,4.05323 11.7652,5.72734 5.934178,1.66048 7.719166,2.21188 9.779001,3.02086 5.919133,2.32465 10.187891,6.26267 12.922144,11.92095 0.74522,1.54215 1.33691,3.07591 2.17206,5.63033 0.76136,2.32874 1.0132,2.94943 1.32198,3.25821 0.26281,0.26281 0.39544,0.26766 0.61949,0.0226 z M 89.805346,164.55682 c 0.176126,-0.17613 2.181257,-3.40724 2.181257,-3.51492 0,-0.0515 -0.04212,-0.0936 -0.09361,-0.0936 -0.206777,0 -1.142441,0.27647 -1.425309,0.42114 -0.722665,0.36961 -1.562056,1.33706 -2.111762,2.43395 -0.424633,0.84731 -0.410552,0.87025 0.534302,0.87025 0.565845,0 0.832307,-0.034 0.915125,-0.11684 z"
         id="path181" /><path
         style="fill:#e30a13;stroke-width:0.0846667"
         d="m 38.931726,221.50312 c 0.02262,-0.0366 -0.207123,-0.11362 -0.510533,-0.17118 -1.302652,-0.2471 -2.729449,-1.02066 -3.732284,-2.0235 -0.948815,-0.94881 -1.731631,-2.35575 -1.97785,-3.55476 -0.05922,-0.28837 -0.133191,-0.50854 -0.164383,-0.48926 -0.03119,0.0193 -0.0809,-0.22103 -0.11046,-0.53402 -0.07026,-0.74395 -0.07026,-131.034874 0,-131.778821 0.02956,-0.312988 0.08644,-0.548865 0.126398,-0.52417 0.03996,0.0247 0.07265,-0.04774 0.07265,-0.160955 0,-0.342829 0.412603,-1.500737 0.774959,-2.174805 1.024427,-1.905676 2.98322,-3.373634 5.002833,-3.74922 0.268148,-0.04987 0.487542,-0.122043 0.487542,-0.160391 0,-0.03835 29.834551,-0.06972 66.299002,-0.06972 36.46445,0 66.2805,0.02994 66.25788,0.06654 -0.0226,0.03659 0.21327,0.114557 0.52417,0.173249 1.2465,0.235309 2.53428,0.942858 3.57013,1.961548 1.1442,1.125243 1.81176,2.315093 2.10295,3.74832 0.0779,0.383174 0.17012,0.709381 0.20505,0.724903 0.0856,0.03805 0.0817,132.094132 -0.004,132.094132 -0.0371,0 -0.11344,0.26835 -0.16969,0.59632 -0.28167,1.64257 -1.34965,3.38027 -2.73215,4.44545 -0.91175,0.70248 -2.22145,1.29755 -3.1683,1.43954 -0.20997,0.0315 -0.38175,0.091 -0.38175,0.1323 0,0.0436 -27.79976,0.0751 -66.25667,0.0751 -36.441172,0 -66.238169,-0.0299 -66.215552,-0.0665 z m 65.993334,-21.89359 c 0.1291,-0.20356 0.40095,-0.80364 0.60411,-1.3335 1.55979,-4.06802 2.23136,-5.59607 3.21534,-7.31594 2.74806,-4.8033 6.31302,-8.26219 11.03572,-10.70738 1.57419,-0.81504 3.13452,-1.45545 5.2631,-2.16014 1.5025,-0.49742 2.48159,-0.78399 7.37161,-2.15764 3.41008,-0.95793 5.16125,-1.58662 7.19667,-2.58366 3.78944,-1.85625 6.36918,-4.42415 8.3508,-8.3125 0.57837,-1.13488 0.66558,-1.38111 0.48914,-1.38111 -0.0508,0 -0.49848,0.2555 -0.99483,0.5678 -2.36176,1.48597 -4.94681,2.48017 -7.46411,2.87068 -0.9502,0.1474 -3.68878,0.20243 -3.88984,0.0782 -0.0771,-0.0476 0.13028,-0.15922 0.63901,-0.34378 2.62443,-0.9521 5.47831,-2.63496 8.16149,-4.81262 0.89063,-0.72282 3.19682,-2.99629 3.96213,-3.90591 4.04006,-4.80183 6.12445,-10.14741 6.33868,-16.256 0.0455,-1.29664 -0.0538,-3.51373 -0.19635,-4.38545 -0.0942,-0.5763 -0.27715,-0.35199 -0.53829,0.66011 -1.3593,5.26832 -4.30612,9.5283 -8.55017,12.36024 -0.83063,0.55426 -2.23616,1.31343 -2.4317,1.31343 -0.0611,0 0.19384,-0.35242 0.56652,-0.78316 2.292,-2.64906 4.46172,-5.90178 5.88769,-8.8265 1.38097,-2.83243 2.08927,-5.03547 2.47619,-7.70179 0.19885,-1.37037 0.19351,-5.14991 -0.009,-6.52222 -0.23371,-1.58195 -0.54218,-2.94517 -0.94913,-4.19446 -0.57935,-1.77854 -0.73512,-1.85307 -0.83052,-0.39735 -0.37184,5.67398 -2.93608,11.54176 -6.97398,15.95866 -0.74342,0.8132 -1.7758,1.76642 -1.84171,1.70051 -0.0208,-0.0208 0.12573,-0.28345 0.32568,-0.58361 1.79234,-2.69064 3.37157,-6.7184 4.06483,-10.36708 0.3884,-2.04421 0.43506,-2.59928 0.43416,-5.16467 -9.3e-4,-2.61625 -0.0647,-3.28126 -0.51517,-5.37633 -0.75213,-3.49769 -2.36314,-7.02727 -4.68248,-10.25894 -1.40765,-1.96136 -1.53113,-1.98078 -0.98567,-0.15506 0.66722,2.23326 1.04181,4.22648 1.23839,6.58967 0.12608,1.5157 0.0574,4.79372 -0.13342,6.36433 -0.39215,3.22828 -1.19466,6.38706 -2.3872,9.39639 -0.55822,1.40862 -1.60996,3.61113 -1.6874,3.53368 -0.0231,-0.0231 0.0907,-0.66528 0.25289,-1.42716 1.31464,-6.17717 1.5866,-12.88633 0.7264,-17.92017 -0.50999,-2.98442 -1.35261,-5.3792 -2.74585,-7.8039 -2.33459,-4.06298 -5.09066,-7.07525 -8.10105,-8.854144 -0.43004,-0.254117 -0.81242,-0.462032 -0.84973,-0.462032 -0.16495,0 -0.036,0.287095 0.3689,0.821017 2.59849,3.426889 4.47759,8.590329 5.18578,14.249649 0.25329,2.02416 0.30961,2.85068 0.36054,5.29167 0.1647,7.89267 -1.31254,15.27018 -4.54351,22.69067 -0.24331,0.5588 -0.87563,1.87325 -1.40517,2.921 -2.66446,5.27193 -5.91521,9.97104 -10.65985,15.40933 -2.57499,2.95145 -4.09222,4.91093 -5.45896,7.0502 -3.04014,4.75852 -4.67702,9.76989 -5.41081,16.5654 -0.0915,0.8476 -0.17747,1.31808 -0.24489,1.34056 -0.0725,0.0242 -0.10388,-0.0891 -0.10388,-0.37512 0,-0.22536 -0.0557,-0.88576 -0.12374,-1.46755 -0.55647,-4.75702 -2.14611,-8.36225 -4.911881,-11.13996 -1.911945,-1.9202 -4.077855,-3.13631 -6.254529,-3.51179 -0.781528,-0.13481 -2.426344,-0.0634 -2.976187,0.12911 -1.263369,0.44247 -2.072118,1.07291 -2.505393,1.95302 -0.237518,0.48246 -0.262259,0.60275 -0.232458,1.13014 0.02452,0.43401 0.07753,0.63975 0.200267,0.77735 l 0.166917,0.18714 -0.423334,-0.0403 c -0.924064,-0.0881 -2.00294,-0.84544 -2.480405,-1.74126 -0.690355,-1.29523 -0.694944,-2.81261 -0.01557,-5.14693 0.970215,-3.33364 3.049621,-6.66874 5.256758,-8.4312 0.414084,-0.33065 0.752511,-0.64422 0.752059,-0.69681 -4.51e-4,-0.0526 -0.138364,-0.26707 -0.306471,-0.47662 -2.320639,-2.89273 -5.001641,-6.96642 -6.836539,-10.38788 -5.258852,-9.80597 -7.431197,-20.7385 -6.231362,-31.35993 0.684667,-6.06094 2.488204,-11.18956 5.234797,-14.885878 0.697661,-0.938901 0.604846,-1.027715 -0.428032,-0.40958 -2.597191,1.554318 -4.864281,3.832998 -6.969632,7.005258 -2.642682,3.9819 -3.937621,7.50243 -4.624657,12.573 -0.174802,1.2901 -0.195261,1.77731 -0.19732,4.699 -0.0028,3.96122 0.165972,5.83708 0.810144,9.00499 0.140692,0.6919 0.238055,1.27574 0.216363,1.29743 -0.05875,0.0588 -0.798582,-1.32904 -1.249463,-2.34375 -1.14033,-2.56631 -1.916437,-5.36861 -2.321426,-8.382 -0.188457,-1.40225 -0.26038,-4.79817 -0.132821,-6.27129 0.229207,-2.647 0.750821,-5.10008 1.650259,-7.76094 0.284603,-0.84196 0.28461,-1.09813 2e-5,-0.86195 -0.233056,0.19342 -1.297603,1.65971 -1.979136,2.72602 -4.619861,7.22817 -5.542592,15.3226 -2.690085,23.59816 0.748723,2.17216 1.823146,4.4503 2.829674,5.99986 0.253007,0.38951 0.443435,0.72477 0.423176,0.74503 -0.07048,0.0705 -1.288803,-1.07006 -1.978073,-1.85177 -1.900118,-2.15497 -3.133959,-4.0089 -4.345129,-6.52885 -1.329062,-2.76523 -2.105286,-5.57462 -2.43524,-8.81386 -0.08676,-0.85175 -0.184018,-1.44492 -0.239955,-1.46348 -0.114688,-0.038 -0.351143,0.50434 -0.705124,1.6174 -1.161086,3.65091 -1.399366,8.17225 -0.631834,11.989 0.912346,4.5369 3.893741,10.09294 8.018835,14.94367 0.396005,0.46567 0.688816,0.85826 0.650691,0.87242 -0.116742,0.0434 -1.521925,-0.69878 -2.32784,-1.22943 -4.295446,-2.82831 -7.274136,-7.12491 -8.66825,-12.50346 -0.256932,-0.99126 -0.432208,-1.13231 -0.537056,-0.4322 -0.248589,1.65993 -0.222384,5.14803 0.0532,7.08177 1.139326,7.99445 5.969554,15.04605 13.576618,19.82038 1.55069,0.97324 4.160176,2.22945 5.121653,2.46557 0.4482,0.11007 0.225556,0.19882 -0.639007,0.25472 -1.524102,0.0985 -3.701301,-0.1707 -5.42761,-0.67117 -1.620333,-0.46975 -3.691401,-1.42798 -5.198863,-2.40537 -0.433388,-0.28099 -0.823913,-0.51089 -0.867833,-0.51089 -0.187223,0 -0.04473,0.42598 0.491646,1.46975 1.620555,3.15357 3.757452,5.52066 6.582834,7.29196 2.212568,1.38711 4.72304,2.34307 10.117667,3.85271 6.312146,1.76639 8.50232,2.51022 10.806016,3.66996 4.089804,2.05891 7.271483,5.02017 9.591008,8.92652 1.165703,1.96318 1.947693,3.79612 3.110203,7.29008 0.92924,2.79287 1.09822,3.21038 1.45227,3.58819 0.32315,0.34483 0.56764,0.30526 0.8483,-0.1373 z M 89.886379,164.61016 c 0.284575,-0.33108 2.263491,-3.60315 2.220864,-3.67212 -0.113847,-0.18421 -1.2067,0.0908 -1.843211,0.4638 -0.956348,0.56046 -2.432698,2.69122 -2.230239,3.21882 0.08085,0.2107 1.670198,0.20169 1.852586,-0.0105 z"
         id="path179" /><path
         style="fill:#a10e14;stroke-width:0.0846667"
         d="m 104.21631,200.32363 c -0.21321,-0.0886 -0.66406,-0.59247 -0.84748,-0.94716 -0.0746,-0.14423 -0.508,-1.37244 -0.96314,-2.72936 -0.45515,-1.35692 -1.02912,-2.97862 -1.27549,-3.60378 -0.95652,-2.42714 -2.434597,-5.02064 -3.890366,-6.82617 -0.850618,-1.055 -2.661329,-2.80636 -3.729231,-3.60701 -3.221148,-2.41503 -6.164786,-3.66365 -13.338605,-5.65789 -4.328919,-1.2034 -5.887877,-1.68995 -7.638536,-2.38402 -5.391486,-2.13752 -8.761081,-5.35103 -11.065028,-10.55248 -0.211842,-0.47826 -0.385167,-0.94499 -0.385167,-1.03716 0,-0.25191 0.380664,-0.21489 0.749816,0.0729 2.689294,2.09676 6.681929,3.64435 9.768989,3.78655 l 0.953529,0.0439 -1.016,-0.4962 c -3.158939,-1.5428 -6.135751,-3.66985 -8.627443,-6.16467 -6.364673,-6.37267 -9.107267,-14.48651 -7.878816,-23.30912 0.235188,-1.68911 0.299429,-1.96747 0.447467,-1.93897 0.104437,0.0201 0.187985,0.31182 0.360304,1.25802 0.123385,0.67751 0.359929,1.72869 0.525653,2.33596 1.147695,4.20556 3.625887,8.02245 6.899883,10.62716 0.753561,0.59951 2.034766,1.4682 2.087556,1.41541 0.01976,-0.0198 -0.289603,-0.45436 -0.687466,-0.96577 -3.807792,-4.89457 -6.31958,-10.069 -7.006688,-14.43419 -0.468056,-2.97354 -0.375017,-6.34246 0.258093,-9.34543 0.411972,-1.95406 1.551208,-4.96566 1.902903,-5.03036 0.117049,-0.0215 0.141712,0.15669 0.18746,1.35466 0.08707,2.28004 0.44866,4.52507 1.047194,6.5018 0.9656,3.18901 2.668054,6.45515 4.655921,8.93233 1.063595,1.32541 1.106385,1.31626 0.454522,-0.0971 -1.339522,-2.90445 -2.167858,-5.64761 -2.629558,-8.70818 -0.231037,-1.53152 -0.318171,-4.64544 -0.173235,-6.19086 0.37926,-4.04396 1.60142,-7.70036 3.812999,-11.40755 1.479055,-2.47928 3.69473,-5.20198 3.991643,-4.90507 0.05049,0.0505 -0.06384,0.43841 -0.308622,1.04718 -2.747944,6.83388 -3.056838,14.14349 -0.882073,20.87318 0.573808,1.77561 1.297665,3.47351 1.150992,2.69979 -0.479649,-2.53021 -0.741787,-7.03239 -0.569379,-9.779 0.333675,-5.31573 1.442067,-9.41649 3.56267,-13.18095 2.211054,-3.92503 4.819312,-6.90966 7.766994,-8.887765 1.288111,-0.864415 3.578694,-1.936192 3.578694,-1.674494 0,0.03811 -0.321612,0.383752 -0.714694,0.768086 -3.153052,3.082883 -5.563387,8.956373 -6.388218,15.566783 -0.297675,2.38564 -0.371869,4.03149 -0.32221,7.14754 0.04538,2.84779 0.09289,3.60772 0.357722,5.7218 1.270335,10.1409 5.652417,20.04804 12.9325,29.23817 0.3076,0.38831 0.538846,0.7577 0.514327,0.8216 -0.0245,0.0639 -0.180206,0.19613 -0.346009,0.29396 -0.165803,0.0978 -0.57929,0.40768 -0.918859,0.68856 -2.622627,2.16936 -5.132365,7.05375 -5.417695,10.54378 -0.131286,1.60582 0.564813,3.05937 1.760263,3.67566 0.499475,0.25749 0.531779,0.23205 0.538852,-0.42439 0.01909,-1.77204 1.932061,-3.32821 4.337943,-3.52885 1.354147,-0.11294 2.984609,0.26071 4.630412,1.06114 4.309977,2.09614 7.276457,6.38774 8.389207,12.13665 0.0791,0.40862 0.15809,0.72865 0.17555,0.71119 0.0175,-0.0175 0.10784,-0.50418 0.20084,-1.08161 1.06206,-6.59376 3.03548,-11.36125 6.79549,-16.41686 1.15891,-1.55825 1.95519,-2.53358 3.73251,-4.57185 1.95452,-2.24148 3.0181,-3.54419 4.44521,-5.44468 6.92919,-9.2276 10.82702,-18.70149 11.90269,-28.93014 0.46582,-4.42957 0.29859,-9.83472 -0.42682,-13.79587 -1.06028,-5.78965 -3.22569,-10.58625 -6.04133,-13.382132 -0.70113,-0.696214 -0.78441,-0.807969 -0.61957,-0.831381 0.27402,-0.03892 2.44249,1.038239 3.49256,1.734879 3.12632,2.074064 6.20104,5.741774 8.24819,9.838944 1.21739,2.43647 1.97577,5.19806 2.39763,8.73089 0.21084,1.76567 0.20809,7.2298 -0.005,9.271 -0.15378,1.47534 -0.6157,4.86131 -0.70458,5.16467 -0.0343,0.1171 -0.022,0.14322 0.0399,0.0847 0.0492,-0.0466 0.25832,-0.52282 0.46467,-1.05834 2.3457,-6.08767 3.05406,-12.4242 2.04322,-18.27764 -0.33567,-1.94377 -0.87903,-3.93381 -1.51686,-5.55544 -0.33467,-0.85084 -0.35628,-0.97425 -0.17061,-0.97425 0.52679,0 2.86706,3.06309 4.36319,5.71082 3.98963,7.06052 4.51232,15.10413 1.505,23.16051 -0.23467,0.62865 -0.6362,1.58115 -0.89231,2.11667 -0.2561,0.53552 -0.51973,1.10702 -0.58585,1.27 l -0.1202,0.29633 0.34409,-0.381 c 0.9882,-1.09422 2.30392,-2.98533 3.20215,-4.60251 2.01512,-3.62802 3.23065,-8.12908 3.23097,-11.96406 0,-1.42282 0.14608,-1.48613 0.6992,-0.30326 1.89337,4.04903 2.46387,9.79573 1.45037,14.60976 -0.86687,4.11761 -3.40337,9.08728 -6.8793,13.47841 -0.36861,0.46567 -0.65707,0.86082 -0.64103,0.87812 0.055,0.0592 0.80885,-0.42546 1.67168,-1.07476 1.61509,-1.21541 3.39217,-3.08906 4.53217,-4.77847 1.69401,-2.51041 2.92998,-5.74956 3.40986,-8.93626 0.0583,-0.38686 0.15112,-0.7652 0.20637,-0.84076 0.0913,-0.12481 0.10828,-0.12243 0.18586,0.026 0.10351,0.19808 0.4119,2.26756 0.52903,3.55009 0.12484,1.36695 0.10383,3.84762 -0.0447,5.27291 -0.53611,5.14593 -2.53792,9.90555 -5.91943,14.07437 -2.71722,3.34986 -6.37859,6.28867 -10.24905,8.22645 -0.74507,0.37303 -1.37372,0.69907 -1.397,0.72454 -0.0734,0.0803 1.70451,-0.0545 2.43934,-0.18494 2.68315,-0.47626 5.48734,-1.67571 7.80533,-3.33862 0.68574,-0.49195 1.02696,-0.62079 1.14373,-0.43186 0.0675,0.10927 -0.77166,2.00607 -1.32928,3.00448 -1.72167,3.08268 -3.87027,5.33019 -6.69182,6.9999 -2.4288,1.43729 -4.58688,2.23118 -10.77563,3.96399 -3.57485,1.00094 -6.19151,1.83024 -7.874,2.49554 -2.31764,0.91645 -5.21757,2.59 -7.06967,4.07989 -1.63739,1.31718 -3.50056,3.291 -4.74269,5.02435 -1.79597,2.5062 -2.91813,4.72371 -4.49197,8.87653 -0.7448,1.96526 -1.01892,2.55189 -1.31873,2.82215 -0.20166,0.18177 -0.53275,0.25198 -0.75424,0.15996 z m 0.70875,-0.7141 c 0.1291,-0.20356 0.40095,-0.80364 0.60411,-1.3335 1.55979,-4.06802 2.23136,-5.59607 3.21534,-7.31594 2.74806,-4.8033 6.31302,-8.26219 11.03572,-10.70738 1.57419,-0.81504 3.13452,-1.45545 5.2631,-2.16014 1.5025,-0.49742 2.48159,-0.78399 7.37161,-2.15764 3.41008,-0.95793 5.16125,-1.58662 7.19667,-2.58366 3.78944,-1.85625 6.36918,-4.42415 8.3508,-8.3125 0.57837,-1.13488 0.66558,-1.38111 0.48914,-1.38111 -0.0508,0 -0.49848,0.2555 -0.99483,0.5678 -2.36176,1.48597 -4.94681,2.48017 -7.46411,2.87068 -0.9502,0.1474 -3.68878,0.20243 -3.88984,0.0782 -0.0771,-0.0476 0.13028,-0.15922 0.63901,-0.34378 2.62443,-0.9521 5.47831,-2.63496 8.16149,-4.81262 0.89063,-0.72282 3.19682,-2.99629 3.96213,-3.90591 4.04006,-4.80183 6.12445,-10.14741 6.33868,-16.256 0.0455,-1.29664 -0.0538,-3.51373 -0.19635,-4.38545 -0.0942,-0.5763 -0.27715,-0.35199 -0.53829,0.66011 -1.3593,5.26832 -4.30612,9.5283 -8.55017,12.36024 -0.83063,0.55426 -2.23616,1.31343 -2.4317,1.31343 -0.0611,0 0.19384,-0.35242 0.56652,-0.78316 2.292,-2.64906 4.46172,-5.90178 5.88769,-8.8265 1.38097,-2.83243 2.08927,-5.03547 2.47619,-7.70179 0.19885,-1.37037 0.19351,-5.14991 -0.009,-6.52222 -0.23371,-1.58195 -0.54218,-2.94517 -0.94913,-4.19446 -0.57935,-1.77854 -0.73512,-1.85307 -0.83052,-0.39735 -0.37184,5.67398 -2.93608,11.54176 -6.97398,15.95866 -0.74342,0.8132 -1.7758,1.76642 -1.84171,1.70051 -0.0208,-0.0208 0.12573,-0.28345 0.32568,-0.58361 1.79234,-2.69064 3.37157,-6.7184 4.06483,-10.36708 0.3884,-2.04421 0.43506,-2.59928 0.43416,-5.16467 -9.3e-4,-2.61625 -0.0647,-3.28126 -0.51517,-5.37633 -0.75213,-3.49769 -2.36314,-7.02727 -4.68248,-10.25894 -1.40765,-1.96136 -1.53113,-1.98078 -0.98567,-0.15506 0.66722,2.23326 1.04181,4.22648 1.23839,6.58967 0.12608,1.5157 0.0574,4.79372 -0.13342,6.36433 -0.39215,3.22828 -1.19466,6.38706 -2.3872,9.39639 -0.55822,1.40862 -1.60996,3.61113 -1.6874,3.53368 -0.0231,-0.0231 0.0907,-0.66528 0.25289,-1.42716 1.31464,-6.17717 1.5866,-12.88633 0.7264,-17.92017 -0.50999,-2.98442 -1.35261,-5.3792 -2.74585,-7.8039 -2.33459,-4.06298 -5.09066,-7.07525 -8.10105,-8.854144 -0.43004,-0.254117 -0.81242,-0.462032 -0.84973,-0.462032 -0.16495,0 -0.036,0.287095 0.3689,0.821017 2.59849,3.426889 4.47759,8.590329 5.18578,14.249649 0.25329,2.02416 0.30961,2.85068 0.36054,5.29167 0.1647,7.89267 -1.31254,15.27018 -4.54351,22.69067 -0.24331,0.5588 -0.87563,1.87325 -1.40517,2.921 -2.66446,5.27193 -5.91521,9.97104 -10.65985,15.40933 -2.57499,2.95145 -4.09222,4.91093 -5.45896,7.0502 -3.04014,4.75852 -4.67702,9.76989 -5.41081,16.5654 -0.0915,0.8476 -0.17747,1.31808 -0.24489,1.34056 -0.0725,0.0242 -0.10388,-0.0891 -0.10388,-0.37512 0,-0.22536 -0.0557,-0.88576 -0.12374,-1.46755 -0.55647,-4.75702 -2.14611,-8.36225 -4.911881,-11.13996 -1.911945,-1.9202 -4.077855,-3.13631 -6.254529,-3.51179 -0.781528,-0.13481 -2.426344,-0.0634 -2.976187,0.12911 -1.263369,0.44247 -2.072118,1.07291 -2.505393,1.95302 -0.237518,0.48246 -0.262259,0.60275 -0.232458,1.13014 0.02452,0.43401 0.07753,0.63975 0.200267,0.77735 l 0.166917,0.18714 -0.423334,-0.0403 c -0.924064,-0.0881 -2.00294,-0.84544 -2.480405,-1.74126 -0.690355,-1.29523 -0.694944,-2.81261 -0.01557,-5.14693 0.970215,-3.33364 3.049621,-6.66874 5.256758,-8.4312 0.414084,-0.33065 0.752511,-0.64422 0.752059,-0.69681 -4.51e-4,-0.0526 -0.138364,-0.26707 -0.306471,-0.47662 -2.320639,-2.89273 -5.001641,-6.96642 -6.836539,-10.38788 -5.258852,-9.80597 -7.431197,-20.7385 -6.231362,-31.35993 0.684667,-6.06094 2.488204,-11.18956 5.234797,-14.885878 0.697661,-0.938901 0.604846,-1.027715 -0.428032,-0.40958 -2.597191,1.554318 -4.864281,3.832998 -6.969632,7.005258 -2.642682,3.9819 -3.937621,7.50243 -4.624657,12.573 -0.174802,1.2901 -0.195261,1.77731 -0.19732,4.699 -0.0028,3.96122 0.165972,5.83708 0.810144,9.00499 0.140692,0.6919 0.238055,1.27574 0.216363,1.29743 -0.05875,0.0588 -0.798582,-1.32904 -1.249463,-2.34375 -1.14033,-2.56631 -1.916437,-5.36861 -2.321426,-8.382 -0.188457,-1.40225 -0.26038,-4.79817 -0.132821,-6.27129 0.229207,-2.647 0.750821,-5.10008 1.650259,-7.76094 0.284603,-0.84196 0.28461,-1.09813 2e-5,-0.86195 -0.233056,0.19342 -1.297603,1.65971 -1.979136,2.72602 -4.619861,7.22817 -5.542592,15.3226 -2.690085,23.59816 0.748723,2.17216 1.823146,4.4503 2.829674,5.99986 0.253007,0.38951 0.443435,0.72477 0.423176,0.74503 -0.07048,0.0705 -1.288803,-1.07006 -1.978073,-1.85177 -1.900118,-2.15497 -3.133959,-4.0089 -4.345129,-6.52885 -1.329062,-2.76523 -2.105286,-5.57462 -2.43524,-8.81386 -0.08676,-0.85175 -0.184018,-1.44492 -0.239955,-1.46348 -0.114688,-0.038 -0.351143,0.50434 -0.705124,1.6174 -1.161086,3.65091 -1.399366,8.17225 -0.631834,11.989 0.912346,4.5369 3.893741,10.09294 8.018835,14.94367 0.396005,0.46567 0.688816,0.85826 0.650691,0.87242 -0.116742,0.0434 -1.521925,-0.69878 -2.32784,-1.22943 -4.295446,-2.82831 -7.274136,-7.12491 -8.66825,-12.50346 -0.256932,-0.99126 -0.432208,-1.13231 -0.537056,-0.4322 -0.248589,1.65993 -0.222384,5.14803 0.0532,7.08177 1.139326,7.99445 5.969554,15.04605 13.576618,19.82038 1.55069,0.97324 4.160176,2.22945 5.121653,2.46557 0.4482,0.11007 0.225556,0.19882 -0.639007,0.25472 -1.524102,0.0985 -3.701301,-0.1707 -5.42761,-0.67117 -1.620333,-0.46975 -3.691401,-1.42798 -5.198863,-2.40537 -0.433388,-0.28099 -0.823913,-0.51089 -0.867833,-0.51089 -0.187223,0 -0.04473,0.42598 0.491646,1.46975 1.620555,3.15357 3.757452,5.52066 6.582834,7.29196 2.212568,1.38711 4.72304,2.34307 10.117667,3.85271 6.312146,1.76639 8.50232,2.51022 10.806016,3.66996 4.089804,2.05891 7.271483,5.02017 9.591008,8.92652 1.165693,1.96318 1.947683,3.79612 3.110193,7.29008 0.92924,2.79287 1.09822,3.21038 1.45227,3.58819 0.32315,0.34483 0.56764,0.30526 0.8483,-0.1373 z M 87.52832,164.96591 c -0.205766,-0.53622 1.064193,-2.70745 2.069492,-3.53819 0.543459,-0.44908 0.895468,-0.61382 1.811516,-0.84776 1.683544,-0.42996 1.701793,-0.41898 1.058907,0.63697 -0.264442,0.43435 -0.911069,1.47553 -1.436951,2.31373 l -0.956148,1.524 -1.247385,0.0234 c -1.079918,0.0203 -1.254372,0.005 -1.299431,-0.11219 z m 2.358059,-0.35575 c 0.284575,-0.33108 2.263491,-3.60315 2.220864,-3.67212 -0.113847,-0.18421 -1.2067,0.0908 -1.843211,0.4638 -0.956348,0.56046 -2.432698,2.69122 -2.230239,3.21882 0.08085,0.2107 1.670198,0.20169 1.852586,-0.0105 z"
         id="path177" /><path
         style="fill:#5d1517;stroke-width:0.0846667"
         d="m 103.99303,200.06972 c -0.37226,-0.29282 -0.71543,-1.10176 -1.61853,-3.81539 -1.38941,-4.17487 -2.25006,-6.05347 -3.878898,-8.46667 -2.129061,-3.15432 -4.806103,-5.55335 -8.202333,-7.3505 -2.42037,-1.28077 -4.876373,-2.13844 -10.964334,-3.82888 -3.012993,-0.83663 -5.123865,-1.49827 -6.609496,-2.07175 -4.896912,-1.89027 -8.161639,-4.72658 -10.412924,-9.04646 -0.524524,-1.00648 -1.138582,-2.36408 -1.138582,-2.51725 0,-0.18193 0.31482,-0.045 0.96049,0.41767 3.057601,2.19116 7.119474,3.63937 9.961511,3.55166 l 0.804334,-0.0248 -1.397,-0.68309 c -5.003768,-2.4467 -9.235461,-6.11996 -12.234335,-10.61984 -3.69945,-5.5511 -5.095657,-11.9663 -4.1,-18.8384 0.273407,-1.88707 0.319844,-1.94132 0.54362,-0.635 1.0306,6.01622 4.190948,11.03104 8.919626,14.15359 0.481752,0.31813 0.932021,0.57841 1.000599,0.57841 0.145027,0 0.147245,0.003 -0.988847,-1.43933 -2.657584,-3.37449 -4.923151,-7.45942 -6.034043,-10.87967 -1.37531,-4.23435 -1.5183,-9.01143 -0.401684,-13.41967 0.432233,-1.7064 1.410432,-4.23033 1.595271,-4.11609 0.04059,0.0251 0.09797,0.68524 0.127527,1.46701 0.175729,4.64862 1.665437,9.23624 4.296317,13.23069 1.035178,1.5717 2.712451,3.66211 2.837791,3.53677 0.02522,-0.0252 -0.163555,-0.46342 -0.419505,-0.97377 -2.781068,-5.54529 -3.840052,-11.71745 -2.96708,-17.29328 0.632142,-4.0376 2.32332,-8.0958 4.878449,-11.70645 0.999199,-1.41197 2.183497,-2.77155 2.414235,-2.77155 0.141461,0 0.158552,-0.0657 -0.233104,0.89617 -2.644727,6.49522 -3.002562,13.71836 -1.008396,20.35517 0.394387,1.31256 1.314727,3.67514 1.487508,3.81853 0.148447,0.1232 0.149493,0.14516 -0.05727,-1.20268 -1.191595,-7.76794 -0.396448,-15.25147 2.198605,-20.69219 2.109504,-4.42273 5.284186,-8.31164 8.558712,-10.48422 0.840751,-0.557822 2.983743,-1.665446 3.222246,-1.665446 0.06072,0 -0.21305,0.333375 -0.608375,0.740834 -6.690407,6.895752 -8.611544,22.844112 -4.436923,36.833202 2.085797,6.98947 5.962272,14.24447 11.00266,20.59197 0.351285,0.44238 0.639381,0.84656 0.640213,0.89818 8.46e-4,0.0516 -0.212249,0.23578 -0.473516,0.40925 -0.67315,0.44694 -1.819811,1.56933 -2.500423,2.44748 -2.515178,3.24519 -4.173249,7.98999 -3.583429,10.25446 0.308076,1.18279 1.229557,2.22858 2.166713,2.45901 l 0.222166,0.0546 0.038,-0.74734 c 0.03071,-0.60388 0.08347,-0.83598 0.274846,-1.20911 0.699142,-1.36311 2.440848,-2.23443 4.449821,-2.22611 3.557089,0.0147 7.498355,2.55446 9.840877,6.34143 1.21064,1.95715 2.07776,4.24477 2.52002,6.64832 0.24395,1.32578 0.25061,1.35216 0.3292,1.30359 0.0384,-0.0237 0.11702,-0.39676 0.17475,-0.82896 0.32148,-2.40683 1.01527,-5.39173 1.75103,-7.53343 1.6742,-4.87341 4.0333,-8.6364 8.88035,-14.16507 4.74685,-5.41436 8.03033,-10.16201 10.74955,-15.543 3.77901,-7.47817 5.66603,-14.95044 5.85684,-23.192 0.16355,-7.0637 -1.00935,-13.22093 -3.45108,-18.1168 -1.0942,-2.19397 -2.49072,-4.206317 -3.4592,-4.984605 -0.3792,-0.30474 -0.44689,-0.479203 -0.15117,-0.389658 0.39221,0.118765 2.16371,1.037599 2.8575,1.482122 2.70984,1.736231 5.1953,4.447901 7.34875,8.017571 1.22193,2.02551 1.92731,3.62933 2.51676,5.72227 1.35933,4.82659 1.50721,11.24908 0.41553,18.0481 -0.11963,0.74507 -0.23647,1.50707 -0.25963,1.69333 -0.0397,0.31932 -0.0345,0.32922 0.0914,0.17319 0.1979,-0.24528 1.08085,-2.54448 1.51498,-3.945 1.04774,-3.38004 1.54756,-6.36101 1.63897,-9.77485 0.10796,-4.03221 -0.48234,-7.72983 -1.81516,-11.37021 -0.20959,-0.57248 -0.35647,-1.06548 -0.32639,-1.09556 0.0764,-0.0764 0.80803,0.65326 1.46308,1.4591 0.61638,0.75826 2.08376,2.94546 2.6697,3.97933 2.32509,4.10249 3.46123,8.35226 3.46312,12.954 0.002,4.55173 -1.04911,8.89028 -3.2225,13.30278 -0.2725,0.55324 -0.47652,1.02494 -0.45338,1.04822 0.11235,0.11303 1.65316,-1.78929 2.64023,-3.25966 1.64545,-2.45112 2.74805,-4.79872 3.53033,-7.5166 0.58131,-2.01964 0.95697,-4.38707 0.97689,-6.15655 0.0122,-1.08069 0.0727,-1.43531 0.21536,-1.26259 0.36124,0.43724 1.30693,3.10535 1.6362,4.61627 0.70298,3.2258 0.77985,6.88627 0.20959,9.9808 -0.81914,4.44507 -3.3329,9.42612 -7.24837,14.36277 -0.31906,0.40228 -0.58013,0.75471 -0.58013,0.78316 0,0.13913 0.27579,-5.1e-4 1.13599,-0.57502 4.59317,-3.06795 7.70909,-7.9576 8.77271,-13.76658 0.22847,-1.24781 0.25261,-1.33231 0.33645,-1.17795 0.0723,0.13311 0.28964,1.42785 0.42512,2.53262 0.0486,0.39582 0.11147,1.44357 0.13982,2.32833 0.20725,6.46604 -1.80022,12.40425 -5.95347,17.61067 -0.85225,1.06838 -3.11982,3.37289 -4.17928,4.24737 -2.24104,1.84978 -4.78095,3.47282 -6.90034,4.40943 -0.46566,0.20578 -0.88286,0.40912 -0.9271,0.45185 -0.12888,0.12449 1.51034,0.0909 2.44607,-0.0502 1.07768,-0.16242 2.49517,-0.5336 3.56567,-0.93368 1.59534,-0.59624 3.89572,-1.85446 5.04521,-2.75955 0.33532,-0.26401 0.58049,-0.31457 0.58049,-0.11971 0,0.30729 -0.96977,2.31676 -1.71796,3.5598 -1.8911,3.1419 -4.37258,5.40078 -7.72238,7.02966 -2.14325,1.04218 -3.74199,1.60654 -7.66596,2.70614 -6.94286,1.94556 -8.86605,2.59011 -11.4687,3.84368 -4.92111,2.37026 -8.80417,6.04284 -11.60277,10.97385 -0.99066,1.74552 -1.74092,3.43132 -2.92022,6.56167 -0.8176,2.17024 -1.0459,2.54 -1.56823,2.54 -0.14792,0 -0.36274,-0.0738 -0.47736,-0.16394 z m 0.93203,-0.46019 c 0.1291,-0.20356 0.40095,-0.80364 0.60411,-1.3335 1.55979,-4.06802 2.23136,-5.59607 3.21534,-7.31594 2.74806,-4.8033 6.31302,-8.26219 11.03572,-10.70738 1.57419,-0.81504 3.13452,-1.45545 5.2631,-2.16014 1.5025,-0.49742 2.48159,-0.78399 7.37161,-2.15764 3.41008,-0.95793 5.16125,-1.58662 7.19667,-2.58366 3.78944,-1.85625 6.36918,-4.42415 8.3508,-8.3125 0.57837,-1.13488 0.66558,-1.38111 0.48914,-1.38111 -0.0508,0 -0.49848,0.2555 -0.99483,0.5678 -2.36176,1.48597 -4.94681,2.48017 -7.46411,2.87068 -0.9502,0.1474 -3.68878,0.20243 -3.88984,0.0782 -0.0771,-0.0476 0.13028,-0.15922 0.63901,-0.34378 2.62443,-0.9521 5.47831,-2.63496 8.16149,-4.81262 0.89063,-0.72282 3.19682,-2.99629 3.96213,-3.90591 4.04006,-4.80183 6.12445,-10.14741 6.33868,-16.256 0.0455,-1.29664 -0.0538,-3.51373 -0.19635,-4.38545 -0.0942,-0.5763 -0.27715,-0.35199 -0.53829,0.66011 -1.3593,5.26832 -4.30612,9.5283 -8.55017,12.36024 -0.83063,0.55426 -2.23616,1.31343 -2.4317,1.31343 -0.0611,0 0.19384,-0.35242 0.56652,-0.78316 2.292,-2.64906 4.46172,-5.90178 5.88769,-8.8265 1.38097,-2.83243 2.08927,-5.03547 2.47619,-7.70179 0.19885,-1.37037 0.19351,-5.14991 -0.009,-6.52222 -0.23371,-1.58195 -0.54218,-2.94517 -0.94913,-4.19446 -0.57935,-1.77854 -0.73512,-1.85307 -0.83052,-0.39735 -0.37184,5.67398 -2.93608,11.54176 -6.97398,15.95866 -0.74342,0.8132 -1.7758,1.76642 -1.84171,1.70051 -0.0208,-0.0208 0.12573,-0.28345 0.32568,-0.58361 1.79234,-2.69064 3.37157,-6.7184 4.06483,-10.36708 0.3884,-2.04421 0.43506,-2.59928 0.43416,-5.16467 -9.3e-4,-2.61625 -0.0647,-3.28126 -0.51517,-5.37633 -0.75213,-3.49769 -2.36314,-7.02727 -4.68248,-10.25894 -1.40765,-1.96136 -1.53113,-1.98078 -0.98567,-0.15506 0.66722,2.23326 1.04181,4.22648 1.23839,6.58967 0.12608,1.5157 0.0574,4.79372 -0.13342,6.36433 -0.39215,3.22828 -1.19466,6.38706 -2.3872,9.39639 -0.55822,1.40862 -1.60996,3.61113 -1.6874,3.53368 -0.0231,-0.0231 0.0907,-0.66528 0.25289,-1.42716 1.31464,-6.17717 1.5866,-12.88633 0.7264,-17.92017 -0.50999,-2.98442 -1.35261,-5.3792 -2.74585,-7.8039 -2.33459,-4.06298 -5.09066,-7.07525 -8.10105,-8.854144 -0.43004,-0.254117 -0.81242,-0.462032 -0.84973,-0.462032 -0.16495,0 -0.036,0.287095 0.3689,0.821017 2.59849,3.426889 4.47759,8.590329 5.18578,14.249649 0.25329,2.02416 0.30961,2.85068 0.36054,5.29167 0.1647,7.89267 -1.31254,15.27018 -4.54351,22.69067 -0.24331,0.5588 -0.87563,1.87325 -1.40517,2.921 -2.66446,5.27193 -5.91521,9.97104 -10.65985,15.40933 -2.57499,2.95145 -4.09222,4.91093 -5.45896,7.0502 -3.04014,4.75852 -4.67702,9.76989 -5.41081,16.5654 -0.0915,0.8476 -0.17747,1.31808 -0.24489,1.34056 -0.0725,0.0242 -0.10388,-0.0891 -0.10388,-0.37512 0,-0.22536 -0.0557,-0.88576 -0.12374,-1.46755 -0.55647,-4.75702 -2.14611,-8.36225 -4.911881,-11.13996 -1.911945,-1.9202 -4.077855,-3.13631 -6.254529,-3.51179 -0.781528,-0.13481 -2.426344,-0.0634 -2.976187,0.12911 -1.263369,0.44247 -2.072118,1.07291 -2.505393,1.95302 -0.237518,0.48246 -0.262259,0.60275 -0.232458,1.13014 0.02452,0.43401 0.07753,0.63975 0.200267,0.77735 l 0.166917,0.18714 -0.423334,-0.0403 c -0.924064,-0.0881 -2.00294,-0.84544 -2.480405,-1.74126 -0.690355,-1.29523 -0.694944,-2.81261 -0.01557,-5.14693 0.970215,-3.33364 3.049621,-6.66874 5.256758,-8.4312 0.414084,-0.33065 0.752511,-0.64422 0.752059,-0.69681 -4.51e-4,-0.0526 -0.138364,-0.26707 -0.306471,-0.47662 -2.320639,-2.89273 -5.001641,-6.96642 -6.836539,-10.38788 -5.258852,-9.80597 -7.431197,-20.7385 -6.231362,-31.35993 0.684667,-6.06094 2.488204,-11.18956 5.234797,-14.885878 0.697661,-0.938901 0.604846,-1.027715 -0.428032,-0.40958 -2.597191,1.554318 -4.864281,3.832998 -6.969632,7.005258 -2.642682,3.9819 -3.937621,7.50243 -4.624657,12.573 -0.174802,1.2901 -0.195261,1.77731 -0.19732,4.699 -0.0028,3.96122 0.165972,5.83708 0.810144,9.00499 0.140692,0.6919 0.238055,1.27574 0.216363,1.29743 -0.05875,0.0588 -0.798582,-1.32904 -1.249463,-2.34375 -1.14033,-2.56631 -1.916437,-5.36861 -2.321426,-8.382 -0.188457,-1.40225 -0.26038,-4.79817 -0.132821,-6.27129 0.229207,-2.647 0.750821,-5.10008 1.650259,-7.76094 0.284603,-0.84196 0.28461,-1.09813 2e-5,-0.86195 -0.233056,0.19342 -1.297603,1.65971 -1.979136,2.72602 -4.619861,7.22817 -5.542592,15.3226 -2.690085,23.59816 0.748723,2.17216 1.823146,4.4503 2.829674,5.99986 0.253007,0.38951 0.443435,0.72477 0.423176,0.74503 -0.07048,0.0705 -1.288803,-1.07006 -1.978073,-1.85177 -1.900118,-2.15497 -3.133959,-4.0089 -4.345129,-6.52885 -1.329062,-2.76523 -2.105286,-5.57462 -2.43524,-8.81386 -0.08676,-0.85175 -0.184018,-1.44492 -0.239955,-1.46348 -0.114688,-0.038 -0.351143,0.50434 -0.705124,1.6174 -1.161086,3.65091 -1.399366,8.17225 -0.631834,11.989 0.912346,4.5369 3.893741,10.09294 8.018835,14.94367 0.396005,0.46567 0.688816,0.85826 0.650691,0.87242 -0.116742,0.0434 -1.521925,-0.69878 -2.32784,-1.22943 -4.295446,-2.82831 -7.274136,-7.12491 -8.66825,-12.50346 -0.256932,-0.99126 -0.432208,-1.13231 -0.537056,-0.4322 -0.248589,1.65993 -0.222384,5.14803 0.0532,7.08177 1.139326,7.99445 5.969554,15.04605 13.576618,19.82038 1.55069,0.97324 4.160176,2.22945 5.121653,2.46557 0.4482,0.11007 0.225556,0.19882 -0.639007,0.25472 -1.524102,0.0985 -3.701301,-0.1707 -5.42761,-0.67117 -1.620333,-0.46975 -3.691401,-1.42798 -5.198863,-2.40537 -0.433388,-0.28099 -0.823913,-0.51089 -0.867833,-0.51089 -0.187223,0 -0.04473,0.42598 0.491646,1.46975 1.620555,3.15357 3.757452,5.52066 6.582834,7.29196 2.212568,1.38711 4.72304,2.34307 10.117667,3.85271 6.312146,1.76639 8.50232,2.51022 10.806016,3.66996 4.089804,2.05891 7.271483,5.02017 9.591008,8.92652 1.165703,1.96318 1.947693,3.79612 3.110203,7.29008 0.92924,2.79287 1.09822,3.21038 1.45227,3.58819 0.32315,0.34483 0.56764,0.30526 0.8483,-0.1373 z M 87.62373,164.92355 c -0.106666,-0.17259 0.407836,-1.37579 0.908146,-2.12376 0.544212,-0.81361 1.247959,-1.49667 1.818105,-1.76467 0.40215,-0.18903 1.902998,-0.59279 2.208122,-0.59402 0.104775,-4.3e-4 0.1905,0.0302 0.1905,0.0682 0,0.0379 -0.619125,1.05708 -1.375834,2.26483 l -1.375833,2.19591 -1.157719,0.0235 c -0.776995,0.0158 -1.176717,-0.007 -1.215487,-0.07 z m 2.262649,-0.31339 c 0.284575,-0.33108 2.263491,-3.60315 2.220864,-3.67212 -0.113847,-0.18421 -1.2067,0.0908 -1.843211,0.4638 -0.956348,0.56046 -2.432698,2.69122 -2.230239,3.21882 0.08085,0.2107 1.670198,0.20169 1.852586,-0.0105 z"
         id="path175" /><path
         style="fill:#2f2222;stroke-width:0.0846667"
         d="m 103.93496,199.85152 c -0.394,-0.44874 -0.4656,-0.62249 -1.37288,-3.33141 -1.06384,-3.17634 -1.4654,-4.19759 -2.3429,-5.95855 -2.306897,-4.6294 -5.715688,-8.07798 -10.275663,-10.39559 -2.237815,-1.13737 -4.774155,-2.01511 -10.275915,-3.55618 -5.174812,-1.44949 -7.000266,-2.07704 -9.090836,-3.12525 -2.007358,-1.00649 -3.301074,-1.91112 -4.701762,-3.28771 -1.784809,-1.75411 -3.101979,-3.70276 -4.24104,-6.27431 -0.373261,-0.84268 -0.418518,-1.07301 -0.17623,-0.89687 3.509411,2.55124 6.852639,3.83304 10.589867,4.06018 0.839531,0.051 1.199047,-0.0205 1.015292,-0.20207 -0.04618,-0.0456 -0.407809,-0.22082 -0.803625,-0.38935 -5.161191,-2.1974 -10.480369,-6.85818 -13.528264,-11.85375 -0.637692,-1.0452 -1.761894,-3.35825 -2.173836,-4.47268 -1.223441,-3.30979 -1.752878,-6.89429 -1.563511,-10.58559 0.06941,-1.35308 0.357336,-3.83335 0.456505,-3.93252 0.05761,-0.0576 0.08904,0.0651 0.299419,1.16845 1.076753,5.64749 4.243348,10.50448 8.837816,13.55562 0.906879,0.60225 1.32187,0.7912 1.32187,0.60185 0,-0.0366 -0.363066,-0.52236 -0.806812,-1.0795 -3.543934,-4.44949 -6.091463,-9.35316 -7.014128,-13.5013 -1.023922,-4.60338 -0.539418,-10.22758 1.235855,-14.34601 0.401869,-0.9323 0.489085,-0.92095 0.489085,0.0636 0,2.68791 0.730682,6.13065 1.944114,9.16002 0.460282,1.14911 1.598323,3.29633 2.368979,4.46971 0.745734,1.13543 2.198628,3.00133 2.740579,3.51963 0.482515,0.46145 0.533594,0.29341 0.137856,-0.45352 -1.327366,-2.50531 -2.468007,-5.70993 -2.995752,-8.41654 -0.406116,-2.08281 -0.502637,-3.12285 -0.503651,-5.42694 -10e-4,-2.3163 0.09316,-3.30161 0.509845,-5.334 0.793985,-3.8727 2.828804,-8.13587 5.455558,-11.43 0.646135,-0.8103 1.493133,-1.65906 1.394108,-1.397 -0.03519,0.0931 -0.252801,0.66463 -0.483573,1.27 -0.816627,2.14219 -1.466963,4.7299 -1.819288,7.239 -0.216874,1.54447 -0.216914,5.85201 -6.8e-5,7.45066 0.392115,2.8908 1.177281,5.77697 2.218171,8.15373 0.382268,0.87287 0.570251,1.15942 0.662586,1.01002 0.02486,-0.0402 -0.04493,-0.62311 -0.15509,-1.29528 -0.429696,-2.62187 -0.51028,-3.78594 -0.506603,-7.31813 0.003,-2.91321 0.02553,-3.46918 0.191096,-4.72181 0.558714,-4.22721 1.586257,-7.47326 3.356352,-10.60286 2.636819,-4.662 5.872072,-8.010285 9.42689,-9.756241 0.525308,-0.258008 0.971899,-0.45231 0.992425,-0.431784 0.02053,0.02053 -0.177267,0.263827 -0.439539,0.540671 -0.262273,0.276843 -0.733889,0.846252 -1.048036,1.265352 -5.469441,7.296722 -7.027734,20.890702 -3.833649,33.443332 1.940107,7.62455 5.819532,15.28511 11.31101,22.33544 0.500692,0.64282 0.910349,1.1824 0.910349,1.19907 0,0.0167 -0.253958,0.21152 -0.564352,0.43301 -2.986221,2.13093 -5.896722,7.50345 -6.097613,11.25565 -0.03983,0.74392 -0.02032,1.03581 0.09618,1.43933 0.329892,1.14262 0.968177,1.95619 1.866786,2.37946 0.686647,0.32342 0.719666,0.30366 0.719666,-0.43078 0,-0.86217 0.225242,-1.43734 0.810364,-2.06934 1.377385,-1.48774 3.993449,-1.87446 6.608201,-0.97683 0.909774,0.31231 2.039432,0.88777 2.953103,1.50433 1.139222,0.76877 2.890809,2.55733 3.704119,3.78233 1.48298,2.23366 2.3841,4.54716 2.90206,7.45067 0.12046,0.67522 0.23716,1.28166 0.25936,1.34766 0.0951,0.28267 0.21742,-0.11431 0.37813,-1.2267 1.09359,-7.56927 3.46679,-12.94965 8.38133,-19.00163 0.64152,-0.79 0.95926,-1.1621 3.00734,-3.52185 6.26455,-7.21789 10.70632,-14.76266 13.22906,-22.47082 1.69249,-5.17136 2.50584,-9.99041 2.61506,-15.494 0.088,-4.43576 -0.29907,-8.23102 -1.21014,-11.86469 -1.13174,-4.51385 -2.98026,-8.3053 -5.21691,-10.700278 -0.70096,-0.750579 -0.6585,-0.75919 0.61026,-0.123758 3.10895,1.557057 5.93799,4.315036 8.42227,8.210726 0.8366,1.3119 1.92757,3.46696 2.37602,4.69349 0.38805,1.06135 0.90308,3.08002 1.13158,4.43528 0.37254,2.20955 0.46323,3.4744 0.46547,6.49223 0.003,3.53024 -0.20405,5.96302 -0.80441,9.4691 -0.14224,0.83074 -0.23757,1.53149 -0.21182,1.55723 0.16945,0.16946 0.77923,-1.17133 1.52991,-3.36399 1.44491,-4.22042 2.07108,-8.1828 1.96632,-12.44276 -0.0866,-3.5219 -0.67887,-6.71362 -1.80251,-9.71364 -0.16555,-0.44201 -0.27892,-0.82574 -0.25192,-0.85274 0.13591,-0.13591 1.56407,1.60539 2.63359,3.21102 2.70046,4.05409 4.17988,8.1029 4.61998,12.64378 0.14273,1.47255 0.0517,4.67598 -0.17556,6.18067 -0.49001,3.24393 -1.35048,6.00716 -2.80681,9.01349 -0.41638,0.85955 -0.74619,1.61925 -0.73291,1.68823 0.0308,0.15989 0.77036,-0.60216 1.63499,-1.68472 2.96851,-3.71668 4.88401,-8.09751 5.58225,-12.7668 0.11249,-0.75223 0.29094,-2.85854 0.3028,-3.57387 l 0.005,-0.29633 0.23947,0.46567 c 0.67843,1.31926 1.37372,3.76396 1.70967,6.01133 0.26005,1.73964 0.28178,5.18367 0.0435,6.89145 -0.67547,4.84082 -3.17482,10.05518 -7.34262,15.31881 -0.53621,0.67719 -0.82991,1.11585 -0.78031,1.16545 0.0496,0.0496 0.34833,-0.0819 0.79368,-0.3494 2.28616,-1.37312 4.68442,-3.7328 6.27863,-6.17764 0.70938,-1.0879 1.62619,-2.93514 2.09037,-4.2118 0.39813,-1.09502 0.86733,-2.83705 1.07605,-3.99515 0.17805,-0.9879 0.21296,-0.91424 0.46591,0.98281 0.24803,1.86033 0.27072,5.31096 0.046,6.99838 -0.41794,3.13835 -1.22798,5.79923 -2.58904,8.5047 -2.33437,4.64019 -6.21911,8.80739 -11.01272,11.81349 -1.01817,0.63851 -3.02981,1.68959 -3.95955,2.06886 -0.88411,0.36066 -0.47473,0.49963 1.0868,0.36893 3.45596,-0.28928 7.02476,-1.68551 9.96219,-3.89754 0.1502,-0.11311 0.29892,-0.17983 0.33049,-0.14825 0.0763,0.0763 -0.63392,1.66592 -1.21731,2.72457 -1.22988,2.23179 -2.55863,3.89005 -4.2557,5.31106 -1.9988,1.67367 -4.16634,2.81697 -7.50683,3.9596 -1.3954,0.47731 -2.28473,0.73938 -7.18381,2.11692 -2.36822,0.6659 -4.66785,1.41262 -6.18067,2.00695 -2.45864,0.9659 -5.30987,2.59737 -7.239,4.14215 -0.96822,0.77531 -2.74428,2.51584 -3.5745,3.50299 -2.31196,2.74897 -3.8852,5.58589 -5.6111,10.11818 -0.8937,2.3469 -1.02054,2.64232 -1.28107,2.98389 -0.29921,0.3923 -0.68087,0.38412 -1.03764,-0.0222 z m 0.9901,-0.24199 c 0.1291,-0.20356 0.40095,-0.80364 0.60411,-1.3335 1.55979,-4.06802 2.23136,-5.59607 3.21534,-7.31594 2.74806,-4.8033 6.31302,-8.26219 11.03572,-10.70738 1.57419,-0.81504 3.13452,-1.45545 5.2631,-2.16014 1.5025,-0.49742 2.48159,-0.78399 7.37161,-2.15764 3.41008,-0.95793 5.16125,-1.58662 7.19667,-2.58366 3.78944,-1.85625 6.36918,-4.42415 8.3508,-8.3125 0.57837,-1.13488 0.66558,-1.38111 0.48914,-1.38111 -0.0508,0 -0.49848,0.2555 -0.99483,0.5678 -2.36176,1.48597 -4.94681,2.48017 -7.46411,2.87068 -0.9502,0.1474 -3.68878,0.20243 -3.88984,0.0782 -0.0771,-0.0476 0.13028,-0.15922 0.63901,-0.34378 2.62443,-0.9521 5.47831,-2.63496 8.16149,-4.81262 0.89063,-0.72282 3.19682,-2.99629 3.96213,-3.90591 4.04006,-4.80183 6.12445,-10.14741 6.33868,-16.256 0.0455,-1.29664 -0.0538,-3.51373 -0.19635,-4.38545 -0.0942,-0.5763 -0.27715,-0.35199 -0.53829,0.66011 -1.3593,5.26832 -4.30612,9.5283 -8.55017,12.36024 -0.83063,0.55426 -2.23616,1.31343 -2.4317,1.31343 -0.0611,0 0.19384,-0.35242 0.56652,-0.78316 2.292,-2.64906 4.46172,-5.90178 5.88769,-8.8265 1.38097,-2.83243 2.08927,-5.03547 2.47619,-7.70179 0.19885,-1.37037 0.19351,-5.14991 -0.009,-6.52222 -0.23371,-1.58195 -0.54218,-2.94517 -0.94913,-4.19446 -0.57935,-1.77854 -0.73512,-1.85307 -0.83052,-0.39735 -0.37184,5.67398 -2.93608,11.54176 -6.97398,15.95866 -0.74342,0.8132 -1.7758,1.76642 -1.84171,1.70051 -0.0208,-0.0208 0.12573,-0.28345 0.32568,-0.58361 1.79234,-2.69064 3.37157,-6.7184 4.06483,-10.36708 0.3884,-2.04421 0.43506,-2.59928 0.43416,-5.16467 -9.3e-4,-2.61625 -0.0647,-3.28126 -0.51517,-5.37633 -0.75213,-3.49769 -2.36314,-7.02727 -4.68248,-10.25894 -1.40765,-1.96136 -1.53113,-1.98078 -0.98567,-0.15506 0.66722,2.23326 1.04181,4.22648 1.23839,6.58967 0.12608,1.5157 0.0574,4.79372 -0.13342,6.36433 -0.39215,3.22828 -1.19466,6.38706 -2.3872,9.39639 -0.55822,1.40862 -1.60996,3.61113 -1.6874,3.53368 -0.0231,-0.0231 0.0907,-0.66528 0.25289,-1.42716 1.31464,-6.17717 1.5866,-12.88633 0.7264,-17.92017 -0.50999,-2.98442 -1.35261,-5.3792 -2.74585,-7.8039 -2.33459,-4.06298 -5.09066,-7.07525 -8.10105,-8.854144 -0.43004,-0.254117 -0.81242,-0.462032 -0.84973,-0.462032 -0.16495,0 -0.036,0.287095 0.3689,0.821017 2.59849,3.426889 4.47759,8.590329 5.18578,14.249649 0.25329,2.02416 0.30961,2.85068 0.36054,5.29167 0.1647,7.89267 -1.31254,15.27018 -4.54351,22.69067 -0.24331,0.5588 -0.87563,1.87325 -1.40517,2.921 -2.66446,5.27193 -5.91521,9.97104 -10.65985,15.40933 -2.57499,2.95145 -4.09222,4.91093 -5.45896,7.0502 -3.04014,4.75852 -4.67702,9.76989 -5.41081,16.5654 -0.0915,0.8476 -0.17747,1.31808 -0.24489,1.34056 -0.0725,0.0242 -0.10388,-0.0891 -0.10388,-0.37512 0,-0.22536 -0.0557,-0.88576 -0.12374,-1.46755 -0.55647,-4.75702 -2.14611,-8.36225 -4.911881,-11.13996 -1.911945,-1.9202 -4.077855,-3.13631 -6.254529,-3.51179 -0.781528,-0.13481 -2.426344,-0.0634 -2.976187,0.12911 -1.263369,0.44247 -2.072118,1.07291 -2.505393,1.95302 -0.237518,0.48246 -0.262259,0.60275 -0.232458,1.13014 0.02452,0.43401 0.07753,0.63975 0.200267,0.77735 l 0.166917,0.18714 -0.423334,-0.0403 c -0.924064,-0.0881 -2.00294,-0.84544 -2.480405,-1.74126 -0.690355,-1.29523 -0.694944,-2.81261 -0.01557,-5.14693 0.970215,-3.33364 3.049621,-6.66874 5.256758,-8.4312 0.414084,-0.33065 0.752511,-0.64422 0.752059,-0.69681 -4.51e-4,-0.0526 -0.138364,-0.26707 -0.306471,-0.47662 -2.320639,-2.89273 -5.001641,-6.96642 -6.836539,-10.38788 -5.258852,-9.80597 -7.431197,-20.7385 -6.231362,-31.35993 0.684667,-6.06094 2.488204,-11.18956 5.234797,-14.885878 0.697661,-0.938901 0.604846,-1.027715 -0.428032,-0.40958 -2.597191,1.554318 -4.864281,3.832998 -6.969632,7.005258 -2.642682,3.9819 -3.937621,7.50243 -4.624657,12.573 -0.174802,1.2901 -0.195261,1.77731 -0.19732,4.699 -0.0028,3.96122 0.165972,5.83708 0.810144,9.00499 0.140692,0.6919 0.238055,1.27574 0.216363,1.29743 -0.05875,0.0588 -0.798582,-1.32904 -1.249463,-2.34375 -1.14033,-2.56631 -1.916437,-5.36861 -2.321426,-8.382 -0.188457,-1.40225 -0.26038,-4.79817 -0.132821,-6.27129 0.229207,-2.647 0.750821,-5.10008 1.650259,-7.76094 0.284603,-0.84196 0.28461,-1.09813 2e-5,-0.86195 -0.233056,0.19342 -1.297603,1.65971 -1.979136,2.72602 -4.619861,7.22817 -5.542592,15.3226 -2.690085,23.59816 0.748723,2.17216 1.823146,4.4503 2.829674,5.99986 0.253007,0.38951 0.443435,0.72477 0.423176,0.74503 -0.07048,0.0705 -1.288803,-1.07006 -1.978073,-1.85177 -1.900118,-2.15497 -3.133959,-4.0089 -4.345129,-6.52885 -1.329062,-2.76523 -2.105286,-5.57462 -2.43524,-8.81386 -0.08676,-0.85175 -0.184018,-1.44492 -0.239955,-1.46348 -0.114688,-0.038 -0.351143,0.50434 -0.705124,1.6174 -1.161086,3.65091 -1.399366,8.17225 -0.631834,11.989 0.912346,4.5369 3.893741,10.09294 8.018835,14.94367 0.396005,0.46567 0.688816,0.85826 0.650691,0.87242 -0.116742,0.0434 -1.521925,-0.69878 -2.32784,-1.22943 -4.295446,-2.82831 -7.274136,-7.12491 -8.66825,-12.50346 -0.256932,-0.99126 -0.432208,-1.13231 -0.537056,-0.4322 -0.248589,1.65993 -0.222384,5.14803 0.0532,7.08177 1.139326,7.99445 5.969554,15.04605 13.576618,19.82038 1.55069,0.97324 4.160176,2.22945 5.121653,2.46557 0.4482,0.11007 0.225556,0.19882 -0.639007,0.25472 -1.524102,0.0985 -3.701301,-0.1707 -5.42761,-0.67117 -1.620333,-0.46975 -3.691401,-1.42798 -5.198863,-2.40537 -0.433388,-0.28099 -0.823913,-0.51089 -0.867833,-0.51089 -0.187223,0 -0.04473,0.42598 0.491646,1.46975 1.620555,3.15357 3.757452,5.52066 6.582834,7.29196 2.212568,1.38711 4.72304,2.34307 10.117667,3.85271 6.312146,1.76639 8.50232,2.51022 10.806016,3.66996 4.089804,2.05891 7.271483,5.02017 9.591008,8.92652 1.165703,1.96318 1.947693,3.79612 3.110203,7.29008 0.92924,2.79287 1.09822,3.21038 1.45227,3.58819 0.32315,0.34483 0.56764,0.30526 0.8483,-0.1373 z M 87.70333,164.69482 c 0.0292,-0.12805 0.242737,-0.62004 0.474535,-1.09331 0.325114,-0.66378 0.564862,-1.01292 1.048845,-1.5274 0.754431,-0.80196 1.170607,-1.03955 2.327916,-1.32897 0.992747,-0.24826 1.024644,-0.25249 1.024644,-0.13593 0,0.0463 -0.594954,1.03692 -1.322119,2.20133 l -1.322118,2.11712 h -1.142394 -1.142394 z m 2.183049,-0.0847 c 0.284575,-0.33108 2.263491,-3.60315 2.220864,-3.67212 -0.113847,-0.18421 -1.2067,0.0908 -1.843211,0.4638 -0.956348,0.56046 -2.432698,2.69122 -2.230239,3.21882 0.08085,0.2107 1.670198,0.20169 1.852586,-0.0105 z"
         id="path173" /></g></g></svg>
